<svg id="visual" viewBox="0 0 960 540" width="960" height="540" xmlns="http://www.w3.org/2000/svg" xmlns:xlink="http://www.w3.org/1999/xlink" version="1.1"><rect x="0" y="0" width="960" height="540" fill="#FFFFFF"></rect><path d="M0 463L9.3 456C18.7 449 37.3 435 56.2 431.2C75 427.3 94 433.7 112.8 429.7C131.7 425.7 150.3 411.3 169.2 407.2C188 403 207 409 225.8 415.2C244.7 421.3 263.3 427.7 282.2 437.7C301 447.7 320 461.3 338.8 466.3C357.7 471.3 376.3 467.7 395.2 469.2C414 470.7 433 477.3 451.8 470.3C470.7 463.3 489.3 442.7 508.2 429.5C527 416.3 546 410.7 564.8 409C583.7 407.3 602.3 409.7 621.2 419.3C640 429 659 446 677.8 441.3C696.7 436.7 715.3 410.3 734.2 408.8C753 407.3 772 430.7 790.8 430.7C809.7 430.7 828.3 407.3 847.2 404C866 400.7 885 417.3 903.8 417.2C922.7 417 941.3 400 950.7 391.5L960 383L960 541L950.7 541C941.3 541 922.7 541 903.8 541C885 541 866 541 847.2 541C828.3 541 809.7 541 790.8 541C772 541 753 541 734.2 541C715.3 541 696.7 541 677.8 541C659 541 640 541 621.2 541C602.3 541 583.7 541 564.8 541C546 541 527 541 508.2 541C489.3 541 470.7 541 451.8 541C433 541 414 541 395.2 541C376.3 541 357.7 541 338.8 541C320 541 301 541 282.2 541C263.3 541 244.7 541 225.8 541C207 541 188 541 169.2 541C150.3 541 131.7 541 112.8 541C94 541 75 541 56.2 541C37.3 541 18.7 541 9.3 541L0 541Z" fill="#0066FF" stroke-linecap="round" stroke-linejoin="miter"></path></svg>